# xmcd
#
# Track frame offsets:
#	150
#	4612
#	7450
#	10337
#	13730
#	17710
#	20857
#	23290
#	25840
#	29210
#	31915
#	53652
#	67952
#	70817
#	74107
#	77382
#	86570
#	93640
#	97200
#	100837
#	104172
#	106937
#	109717
#	113010
#	116580
#	120365
#	124012
#	127682
#	130220
#	133440
#	136862
#	139697
#	143127
#
# Disc length: 1952 seconds
#
# Revision: 2
# Processed by: cddbd v1.5.2PL0 Copyright (c) Steve Scherf et al.
# Submitted via: audiograbber 1.83.01
#
DISCID=c7079e21
DTITLE=Norbert Roschauer - Bluesguitar
DYEAR=1994
DGENRE=Begleit-CD
TTITLE0=Stimmtöne - E, A, D, G, H, E
TTITLE1=Rhythmusgitarre in E - Shuffle 1
TTITLE2=Rhythmusgitarre in E - Shuffle 2
TTITLE3=Rhythmusgitarre in E - Shuffle 3
TTITLE4=Rhythmusgitarre in E - Slow Shuffle
TTITLE5=Rhythmusgitarre in E - Harmony-Shuffle
TTITLE6=Rhythmusgitarre in E - Walking Bass (1)
TTITLE7=Rhythmusgitarre in E - Walking Bass (2)
TTITLE8=Rhythmusgitarre in E - Boogie
TTITLE9=Rhythmusgitarre in E - Country-Blues
TTITLE10=Melodiespiel in E - Licks 1-39
TTITLE11=Melodiespiel in E - Licks 1-22 (erweiterte Pentatonik)
TTITLE12=Solospiel in E - 1st Blues
TTITLE13=Solospiel in E - 2nd Blues
TTITLE14=Solospiel in E - 3rd Blues
TTITLE15=Solospiel in E - Turnarounds 1-10
TTITLE16=Solospiel in E - Endings 1-8
TTITLE17=Solospiel in E - Solo 1
TTITLE18=Solospiel in E - Solo 2
TTITLE19=Solospiel in E - Solo 3
TTITLE20=Blues in A - Walking Blues
TTITLE21=Blues in A - Boogie
TTITLE22=Blues in A - Harmony-Shuffle 2
TTITLE23=Blues in A - Solo 1
TTITLE24=Blues in A - Solo 2
TTITLE25=Blues in A - Solo 3
TTITLE26=Blues in G - Solo 1
TTITLE27=Blues in G - Solo 2
TTITLE28=Blues in G - Solo 3
TTITLE29=Blues in C - Solo 1
TTITLE30=Blues in C - Solo 2
TTITLE31=Blues in C - Solo 3
TTITLE32=Blues in C - Solo 4
EXTD=
EXTT0=
EXTT1=
EXTT2=
EXTT3=
EXTT4=
EXTT5=
EXTT6=
EXTT7=
EXTT8=
EXTT9=
EXTT10=
EXTT11=
EXTT12=
EXTT13=
EXTT14=
EXTT15=
EXTT16=
EXTT17=
EXTT18=
EXTT19=
EXTT20=
EXTT21=
EXTT22=
EXTT23=
EXTT24=
EXTT25=
EXTT26=
EXTT27=
EXTT28=
EXTT29=
EXTT30=
EXTT31=
EXTT32=
PLAYORDER=
